<?xml version="1.0" standalone="no"?>
<!DOCTYPE svg PUBLIC "-//W3C//DTD SVG 20010904//EN"
 "http://www.w3.org/TR/2001/REC-SVG-20010904/DTD/svg10.dtd">
<svg version="1.0" xmlns="http://www.w3.org/2000/svg"
 width="400.000000pt" height="400.000000pt" viewBox="0 0 400.000000 400.000000"
 preserveAspectRatio="xMidYMid meet">
<metadata>
Created by potrace 1.14, written by Peter Selinger 2001-2017
</metadata>
<g transform="translate(0.000000,400.000000) scale(0.100000,-0.100000)"
fill="#000000" stroke="none">
<path d="M0 2000 l0 -2000 2000 0 2000 0 0 2000 0 2000 -2000 0 -2000 0 0
-2000z m1863 1323 c-7 -2 -19 -2 -25 0 -7 3 -2 5 12 5 14 0 19 -2 13 -5z m310
0 c-7 -2 -19 -2 -25 0 -7 3 -2 5 12 5 14 0 19 -2 13 -5z m114 -19 c-3 -3 -12
-4 -19 -1 -8 3 -5 6 6 6 11 1 17 -2 13 -5z m-1909 -51 c9 -20 9 -24 0 -15 -7
7 -20 12 -30 12 -10 0 -18 7 -18 15 0 25 34 17 48 -12z m1072 -38 c-14 -8 -29
-14 -35 -14 -5 0 1 6 15 14 14 8 30 14 35 14 6 0 -1 -6 -15 -14z m540 -15 c10
0 24 8 29 18 10 16 10 16 11 0 0 -21 50 -26 50 -5 0 8 3 9 8 1 13 -20 51 -23
62 -6 9 16 9 16 10 0 0 -22 41 -28 58 -8 11 13 11 13 6 -1 -7 -21 45 -37 57
-17 7 10 9 9 9 -4 0 -10 5 -18 10 -18 12 0 13 -20 1 -38 -6 -11 -24 -10 -97 4
-117 23 -319 23 -431 0 -86 -18 -103 -16 -103 12 1 21 27 57 31 43 6 -16 49
-1 49 18 1 15 1 15 10 0 12 -21 60 -13 61 10 0 10 2 11 6 4 2 -7 15 -13 28
-13 13 0 26 6 29 13 5 10 7 10 12 0 9 -20 54 -16 54 5 1 16 1 16 11 0 5 -10
19 -18 29 -18z m1255 -1 c0 -7 -8 -15 -17 -17 -18 -3 -25 18 -11 32 10 10 28
1 28 -15z m-1607 -44 c-3 -3 -9 2 -12 12 -6 14 -5 15 5 6 7 -7 10 -15 7 -18z
m715 10 c-3 -9 -8 -14 -10 -11 -3 3 -2 9 2 15 9 16 15 13 8 -4z m-1577 -27
l29 -33 -32 29 c-18 17 -33 31 -33 33 0 8 8 1 36 -29z m564 27 c0 -2 -10 -9
-22 -15 -22 -11 -22 -10 -4 4 21 17 26 19 26 11z m-839 -22 c13 -16 12 -17 -3
-4 -10 7 -18 15 -18 17 0 8 8 3 21 -13z m1910 -6 c-10 -9 -11 -8 -5 6 3 10 9
15 12 12 3 -3 0 -11 -7 -18z m769 20 c0 -2 -12 -14 -27 -28 l-28 -24 24 28
c23 25 31 32 31 24z m-1890 -21 c0 -2 -25 -20 -55 -40 -30 -20 -55 -34 -55
-31 0 4 101 75 107 75 2 0 3 -2 3 -4z m825 -26 c3 -5 1 -10 -4 -10 -6 0 -11 5
-11 10 0 6 2 10 4 10 3 0 8 -4 11 -10z m-1554 -17 c13 -16 12 -17 -3 -4 -10 7
-18 15 -18 17 0 8 8 3 21 -13z m1970 -6 c-10 -9 -11 -8 -5 6 3 10 9 15 12 12
3 -3 0 -11 -7 -18z m589 10 c0 -2 -10 -12 -22 -23 l-23 -19 19 23 c18 21 26
27 26 19z m-529 -40 c-10 -9 -11 -8 -5 6 3 10 9 15 12 12 3 -3 0 -11 -7 -18z
m-1980 -4 c13 -16 12 -17 -3 -4 -10 7 -18 15 -18 17 0 8 8 3 21 -13z m54 -43
c10 -11 16 -20 13 -20 -3 0 -13 9 -23 20 -10 11 -16 20 -13 20 3 0 13 -9 23
-20z m465 17 c0 -2 -10 -12 -22 -23 l-23 -19 19 23 c18 21 26 27 26 19z m1330
-7 c0 -5 -5 -10 -11 -10 -5 0 -7 5 -4 10 3 6 8 10 11 10 2 0 4 -4 4 -10z
m-1555 -20 c10 -11 16 -20 13 -20 -3 0 -13 9 -23 20 -10 11 -16 20 -13 20 3 0
13 -9 23 -20z m1540 -38 c-3 -3 -11 0 -18 7 -9 10 -8 11 6 5 10 -3 15 -9 12
-12z m-1215 -13 c0 -6 -4 -7 -10 -4 -5 3 -10 11 -10 16 0 6 5 7 10 4 6 -3 10
-11 10 -16z m1533 6 c-3 -9 -8 -14 -10 -11 -3 3 -2 9 2 15 9 16 15 13 8 -4z
m217 12 c0 -2 -10 -12 -22 -23 l-23 -19 19 23 c18 21 26 27 26 19z m-2205 -47
c10 -11 16 -20 13 -20 -3 0 -13 9 -23 20 -10 11 -16 20 -13 20 3 0 13 -9 23
-20z m240 0 c-15 -17 -16 -22 -4 -36 13 -16 12 -16 -7 -4 -12 7 -27 22 -34 34
-12 19 -12 20 4 7 15 -12 19 -12 34 2 23 24 29 21 7 -3z m1230 -18 c189 -53
330 -137 466 -279 41 -43 88 -99 104 -125 l30 -48 113 0 c61 0 112 3 112 8 0
28 -159 259 -214 311 -34 32 -21 59 29 58 23 -1 32 -4 25 -11 -13 -13 17 -46
36 -39 10 4 12 0 8 -11 -8 -20 14 -49 32 -42 8 3 11 0 7 -10 -7 -19 17 -46 35
-39 11 4 12 2 4 -8 -16 -19 12 -58 36 -51 14 5 14 4 3 -4 -22 -15 1 -64 26
-56 14 4 15 4 4 -4 -14 -10 -7 -52 10 -52 5 0 9 -11 9 -25 l0 -25 154 0 154 0
-20 53 c-11 28 -35 83 -54 121 -19 38 -33 70 -31 73 6 5 80 -140 102 -199 10
-27 22 -48 26 -48 5 0 9 -16 9 -36 0 -19 4 -43 9 -52 5 -9 19 -76 31 -147 23
-135 29 -383 12 -470 -5 -23 -6 37 -4 140 4 173 -2 256 -30 383 l-11 52 -144
0 c-89 0 -143 -4 -143 -10 0 -6 53 -10 140 -10 118 0 140 -2 140 -15 0 -13
-53 -15 -415 -15 -362 0 -415 2 -415 15 0 13 34 15 250 15 160 0 250 4 250 10
0 6 -90 10 -250 10 -216 0 -250 2 -250 15 0 12 18 15 93 17 l92 2 -92 3 c-85
3 -93 6 -93 23 0 18 8 20 73 22 l72 2 -71 3 -72 4 -89 88 c-72 71 -106 96
-182 134 -51 26 -99 47 -107 47 -8 0 -14 4 -14 10 0 10 58 -8 111 -36 71 -36
183 -120 230 -173 27 -30 49 -50 49 -43 0 8 19 12 55 12 68 0 67 3 -30 108
-159 171 -382 273 -625 286 -283 14 -586 -133 -750 -364 l-21 -30 68 0 69 0
60 59 c71 69 146 120 227 155 87 39 68 22 -33 -29 -83 -42 -230 -154 -230
-175 0 -6 18 -10 40 -10 33 0 40 -3 40 -20 0 -18 -7 -20 -62 -22 l-63 -2 63
-3 c54 -3 62 -7 62 -23 0 -19 -8 -20 -140 -20 -132 0 -140 1 -140 20 0 17 9
20 73 23 39 2 26 3 -31 2 -56 -2 -105 1 -107 6 -24 37 133 231 268 332 26 20
49 39 50 44 1 4 5 7 9 6 3 -1 36 13 72 32 67 35 190 76 281 94 80 16 328 6
410 -17z m395 18 c0 -5 -2 -10 -4 -10 -3 0 -8 5 -11 10 -3 6 -1 10 4 10 6 0
11 -4 11 -10z m172 -12 c-7 -7 -12 -8 -12 -2 0 6 3 14 7 17 3 4 9 5 12 2 2 -3
-1 -11 -7 -17z m-217 -26 c-3 -3 -11 0 -18 7 -9 10 -8 11 6 5 10 -3 15 -9 12
-12z m-1754 -19 c13 -16 12 -17 -3 -4 -10 7 -18 15 -18 17 0 8 8 3 21 -13z
m108 -19 l-34 -35 29 -25 c15 -14 26 -28 22 -31 -3 -3 -14 5 -24 17 -13 16
-25 21 -37 16 -17 -6 -17 -7 1 -29 15 -17 15 -19 2 -8 -9 7 -21 10 -26 7 -6
-3 -12 3 -15 13 -3 13 0 18 8 15 20 -8 28 15 13 34 -11 15 -11 15 3 5 13 -11
21 -7 49 22 19 19 36 35 39 35 3 0 -11 -16 -30 -36z m1890 -12 c-24 -27 -47
-47 -50 -45 -8 3 73 91 85 92 5 1 -11 -21 -35 -47z m460 -82 c39 -71 8 -42
-37 33 -33 57 -36 65 -14 40 15 -18 38 -51 51 -73z m-2196 75 c22 9 42 -21 27
-40 -15 -18 -4 -36 18 -28 16 6 16 6 0 -10 -18 -18 -29 -22 -27 -9 4 23 -4 23
-31 -3 -36 -34 -37 -47 -7 -69 19 -14 19 -15 2 -9 -11 4 -23 11 -27 17 -5 7
-13 4 -23 -9 -31 -39 -83 -120 -108 -172 -24 -46 -25 -52 -10 -64 14 -12 13
-14 -8 -20 l-24 -7 26 -1 c18 -1 33 -12 52 -41 l26 -40 -70 0 c-38 0 -69 -4
-69 -9 0 -6 30 -10 68 -10 90 0 86 1 98 -18 10 -17 4 -18 -95 -16 -58 1 -150
2 -203 3 -80 0 -98 3 -98 15 0 12 15 15 79 15 44 0 82 4 85 9 3 5 0 9 -7 8 -6
0 -45 1 -84 1 -58 2 -73 5 -73 17 0 9 10 16 28 16 l27 2 -27 4 c-20 3 -28 10
-28 24 0 17 9 19 108 21 l107 2 -107 3 c-100 3 -108 5 -108 23 0 19 7 20 114
20 96 0 115 3 120 16 4 10 -1 22 -11 30 -17 13 -17 14 1 7 12 -4 23 0 32 12
12 16 11 21 -3 37 -16 18 -16 18 2 12 25 -10 50 23 32 45 -10 12 -9 14 5 8 25
-9 44 28 26 50 -11 14 -10 15 9 9 26 -8 45 19 37 51 -3 12 0 24 7 28 7 5 10 4
5 -3 -3 -6 -2 -13 3 -16 13 -8 34 21 25 35 -5 9 -2 10 9 6 21 -8 44 20 29 35
-19 19 -14 30 7 18 11 -5 26 -7 34 -5z m-83 2 c0 -2 -10 -12 -22 -23 l-23 -19
19 23 c18 21 26 27 26 19z m240 -11 c0 -2 -8 -10 -17 -17 -16 -13 -17 -12 -4
4 13 16 21 21 21 13z m-534 -107 c3 -6 0 -16 -6 -24 -10 -12 -18 -12 -51 5
-39 20 -53 54 -27 62 13 5 74 -27 84 -43z m2100 9 l29 -33 -32 29 c-31 28 -38
36 -30 36 2 0 16 -15 33 -32z m-1864 2 c19 -17 19 -20 5 -20 -9 0 -17 5 -17
11 0 6 -7 9 -14 6 -10 -4 -13 -1 -9 9 7 18 10 18 35 -6z m146 -20 c-7 -11 -16
-20 -20 -20 -5 0 -3 9 4 20 7 11 16 20 20 20 5 0 3 -9 -4 -20z m72 7 c0 -2
-10 -12 -21 -23 -22 -19 -22 -19 -8 4 12 19 29 30 29 19z m1701 -54 c13 -16
12 -17 -3 -4 -17 13 -22 21 -14 21 2 0 10 -8 17 -17z m47 -3 c7 -11 9 -20 4
-20 -4 0 -13 9 -20 20 -7 11 -9 20 -4 20 4 0 13 -9 20 -20z m-1868 -11 c0 -6
-4 -7 -10 -4 -5 3 -10 11 -10 16 0 6 5 7 10 4 6 -3 10 -11 10 -16z m62 -11
c-7 -7 -12 -8 -12 -2 0 14 12 26 19 19 2 -3 -1 -11 -7 -17z m-31 -30 c-11 -11
-13 -10 -7 0 4 7 2 21 -5 30 -12 15 -11 15 6 0 16 -15 17 -20 6 -30z m-455 16
c38 -18 43 -47 9 -52 -29 -4 -86 34 -79 53 8 19 27 19 70 -1z m3242 -170 c24
-89 27 -114 13 -114 -5 0 -14 21 -20 48 -5 26 -17 76 -25 111 -22 96 5 57 32
-45z m-3275 41 c21 -9 23 -34 2 -41 -17 -7 -82 13 -91 27 -3 6 -1 16 6 24 11
13 32 10 83 -10z m-209 -29 c-8 -38 -9 -40 -28 -33 -12 5 -13 12 -5 35 14 41
42 39 33 -2z m-275 -131 c-13 -74 -28 -135 -33 -135 -10 0 0 104 15 165 26
103 31 117 36 111 3 -3 -5 -66 -18 -141z m3534 108 c38 -99 46 -181 15 -171
-11 4 -36 87 -52 173 -10 49 17 47 37 -2z m-3282 -58 c1 -13 -31 -194 -37
-217 -3 -10 -14 -18 -24 -18 -20 0 -20 15 1 125 19 97 29 126 45 123 8 -2 15
-7 15 -13z m192 -17 c19 -10 23 -33 7 -43 -12 -8 -87 12 -95 26 -4 5 -1 16 5
24 12 15 46 12 83 -7z m937 -23 c0 -13 -22 -15 -140 -15 -118 0 -140 2 -140
15 0 13 22 15 140 15 118 0 140 -2 140 -15z m0 -50 c0 -13 -22 -15 -140 -15
-118 0 -140 2 -140 15 0 13 22 15 140 15 118 0 140 -2 140 -15z m2414 -12 c4
-14 26 -223 26 -255 0 -5 -6 -8 -13 -8 -10 0 -16 26 -20 103 -4 56 -10 119
-13 140 -7 38 9 54 20 20z m-2865 -42 c9 -16 -16 -17 -376 -12 -40 1 -53 5
-53 16 0 12 28 15 173 17 210 4 245 1 256 -21z m451 4 c0 -13 -22 -15 -140
-15 -118 0 -140 2 -140 15 0 13 22 15 140 15 118 0 140 -2 140 -15z m1960 0
c0 -13 -26 -15 -167 -16 -93 0 -201 0 -240 1 -46 1 -73 -3 -73 -9 0 -8 79 -12
243 -13 153 -2 192 -4 105 -5 -81 -2 -138 -8 -138 -13 0 -6 -42 -10 -101 -10
-68 0 -98 -3 -94 -11 4 -6 36 -10 73 -9 111 2 122 1 122 -15 0 -12 -17 -15
-95 -15 -57 0 -95 -4 -95 -10 0 -6 38 -10 95 -10 78 0 95 -3 95 -15 0 -16 -8
-17 -112 -15 -43 1 -68 -3 -68 -9 0 -7 33 -11 90 -11 53 0 90 -4 90 -10 0 -6
-37 -10 -90 -10 -58 0 -90 -4 -90 -11 0 -6 18 -10 43 -9 101 4 137 0 137 -15
0 -17 -4 -17 -107 -15 -60 1 -73 -1 -73 -14 0 -13 15 -16 90 -16 53 0 90 -4
90 -10 0 -9 -97 -15 -157 -10 -13 1 -23 -3 -23 -9 0 -7 33 -11 90 -11 73 0 90
-3 90 -15 0 -12 -17 -15 -90 -15 -53 0 -90 -4 -90 -10 0 -6 37 -10 90 -10 73
0 90 -3 90 -15 0 -12 -17 -15 -90 -15 -53 0 -90 -4 -90 -10 0 -6 37 -10 90
-10 53 0 90 -4 90 -10 0 -6 -38 -10 -95 -10 -78 0 -95 -3 -95 -15 0 -12 17
-15 95 -15 57 0 95 -4 95 -10 0 -6 -40 -10 -100 -10 -82 0 -100 -3 -100 -15 0
-12 18 -15 100 -15 60 0 100 -4 100 -10 0 -6 -41 -10 -104 -10 -83 0 -105 -3
-110 -15 -5 -13 11 -15 104 -15 67 0 110 -4 110 -10 0 -5 -7 -10 -16 -10 -14
0 -14 -1 0 -16 18 -18 21 -34 6 -34 -5 0 -10 -7 -10 -15 0 -8 5 -15 10 -15 6
0 10 -4 10 -10 0 -5 -7 -10 -15 -10 -17 0 -39 -46 -29 -61 3 -5 1 -9 -5 -9 -6
0 -14 -12 -17 -27 -4 -16 -14 -36 -22 -46 -13 -14 -14 -22 -5 -36 10 -16 9
-18 -7 -14 -22 6 -37 -31 -20 -52 9 -11 7 -12 -9 -8 -26 7 -50 -34 -30 -49 11
-8 10 -9 -3 -5 -20 7 -60 -33 -40 -40 6 -3 12 -9 12 -15 0 -7 -5 -6 -14 1 -21
18 -51 -26 -33 -48 10 -14 10 -14 -4 -4 -13 11 -19 9 -34 -7 -15 -16 -15 -22
-5 -35 15 -18 -1 -20 -18 -3 -17 17 -16 -13 0 -32 15 -17 -78 66 -103 92 -9
10 -20 14 -25 10 -4 -4 5 9 21 29 17 20 32 34 34 33 2 -2 -4 -13 -14 -24 -20
-22 -8 -28 15 -7 8 6 6 2 -5 -11 -17 -21 -18 -24 -2 -39 16 -16 19 -15 51 16
69 67 186 247 231 354 l15 37 -90 0 -90 0 -26 -52 c-96 -192 -257 -354 -446
-449 -87 -44 -104 -47 -113 -20 -5 18 -9 18 -88 -6 -125 -36 -323 -50 -428
-28 -235 47 -422 154 -571 324 -53 60 -58 76 -27 86 19 6 19 8 3 32 -26 40
-58 99 -51 92 4 -3 24 -32 45 -65 119 -182 323 -329 536 -384 351 -90 728 43
948 333 60 80 128 206 128 237 0 9 4 20 10 26 36 36 55 333 30 462 l-13 62
-121 2 -121 2 118 3 c153 5 155 23 2 23 -96 0 -115 3 -115 15 0 13 53 15 415
15 362 0 415 -2 415 -15z m-2941 -1 c25 -5 31 -11 29 -28 -3 -18 -9 -21 -43
-18 -43 3 -72 23 -61 41 8 13 29 14 75 5z m3199 -130 c6 -60 8 -112 5 -116 -2
-5 -12 -8 -22 -8 -16 0 -19 13 -25 111 -4 61 -9 116 -12 124 -7 16 28 25 38
10 4 -7 11 -61 16 -121z m-2594 111 c-4 -8 -8 -15 -10 -15 -2 0 -4 7 -4 15 0
8 4 15 10 15 5 0 7 -7 4 -15z m-43 -31 c10 -12 -6 -14 -110 -14 -78 0 -121 -4
-121 -11 0 -6 44 -9 126 -8 97 1 128 -2 135 -12 7 -12 -25 -15 -186 -19 -242
-6 -305 -3 -305 16 0 15 37 18 158 14 39 -1 62 2 62 9 0 7 -37 11 -110 11 -90
0 -110 3 -110 15 0 12 27 15 158 17 213 4 288 -1 303 -18z m419 1 c0 -13 -22
-15 -140 -15 -118 0 -140 2 -140 15 0 13 22 15 140 15 118 0 140 -2 140 -15z
m-1410 -176 c0 -108 -3 -140 -12 -137 -16 6 -22 105 -13 206 11 120 25 82 25
-69z m1410 126 c0 -13 -22 -15 -140 -15 -118 0 -140 2 -140 15 0 13 22 15 140
15 118 0 140 -2 140 -15z m-1176 -152 c-3 -115 -5 -128 -21 -128 -16 0 -18 11
-21 85 -4 117 4 170 28 170 17 0 18 -9 14 -127z m184 121 c16 -5 22 -13 20
-28 -3 -18 -8 -21 -48 -18 -46 4 -62 15 -53 39 5 14 42 17 81 7z m636 -19 c4
-11 -2 -15 -24 -15 -17 0 -30 -4 -30 -10 0 -5 18 -10 39 -10 22 0 43 -4 46
-10 4 -7 -90 -10 -274 -10 -181 0 -281 4 -281 10 0 11 23 12 278 10 130 -1
182 2 182 10 0 8 -37 11 -122 10 -280 -3 -338 -1 -338 15 0 17 112 22 367 17
121 -2 152 -6 157 -17z m-967 -9 l35 -24 -40 -21 c-23 -12 -44 -21 -47 -21 -3
0 -5 20 -5 45 0 25 5 45 11 45 5 0 26 -11 46 -24z m1323 9 c0 -13 -22 -15
-140 -15 -118 0 -140 2 -140 15 0 13 22 15 140 15 118 0 140 -2 140 -15z m0
-45 c0 -6 -53 -10 -140 -10 -87 0 -140 4 -140 10 0 6 53 10 140 10 87 0 140
-4 140 -10z m-298 -43 c5 -9 -9 -13 -57 -15 -49 -2 -65 -7 -65 -17 0 -13 33
-15 210 -15 133 0 210 -4 210 -10 0 -6 -77 -10 -210 -10 -133 0 -210 -4 -210
-10 0 -6 77 -10 210 -10 180 0 210 -2 210 -15 0 -13 -22 -15 -135 -15 -83 0
-135 -4 -135 -10 0 -6 52 -10 135 -10 113 0 135 -2 135 -15 0 -13 -21 -15
-130 -15 -80 0 -130 -4 -130 -10 0 -6 50 -10 130 -10 80 0 130 -4 130 -10 0
-6 -48 -10 -125 -10 -104 0 -125 -2 -125 -15 0 -13 21 -15 125 -15 77 0 125
-4 125 -10 0 -6 -47 -10 -121 -10 -92 0 -120 -3 -117 -12 3 -9 39 -14 121 -16
150 -3 156 -22 7 -22 -91 0 -110 -3 -110 -15 0 -12 19 -15 110 -15 67 0 110
-4 110 -10 0 -6 -40 -10 -100 -10 -82 0 -100 -3 -100 -15 0 -12 18 -15 100
-15 60 0 100 -4 100 -10 0 -6 -37 -10 -91 -10 -68 0 -90 -3 -87 -12 3 -9 33
-14 91 -16 106 -3 116 -22 12 -22 -41 0 -75 -3 -75 -7 0 -3 11 -21 26 -40 14
-18 21 -33 17 -33 -5 0 -19 18 -33 40 -25 40 -25 40 -87 40 -34 0 -65 5 -68
10 -4 6 16 10 54 10 50 0 59 3 55 15 -5 11 -22 15 -69 15 -35 0 -67 5 -70 10
-4 6 17 10 55 10 45 0 61 3 58 13 -3 7 -32 14 -80 17 -64 4 -75 3 -71 -10 4
-13 4 -13 -6 0 -19 27 -12 30 65 30 56 0 75 3 72 13 -6 17 -138 22 -149 6 -5
-8 -10 1 -14 23 -5 25 -14 38 -28 43 -17 5 -19 8 -7 12 8 3 18 11 22 17 5 8 8
7 8 -1 0 -9 21 -13 70 -13 56 0 70 3 70 15 0 12 -18 15 -99 15 -56 0 -103 4
-106 10 -4 6 5 10 19 10 14 0 26 5 26 10 0 6 -15 10 -34 10 -18 0 -39 7 -46
15 -11 13 2 15 104 15 160 0 151 19 -11 22 -90 2 -128 7 -131 16 -3 9 12 12
52 12 31 0 56 5 56 10 0 6 -28 10 -62 10 -35 0 -70 5 -78 10 -10 7 9 10 63 10
62 0 77 3 77 15 0 13 -32 15 -225 15 -189 0 -225 2 -225 14 0 20 24 21 320 18
188 -2 256 -6 262 -15z m298 -2 c0 -13 -22 -15 -140 -15 -118 0 -140 2 -140
15 0 13 22 15 140 15 118 0 140 -2 140 -15z m1767 -11 c-3 -3 -12 -4 -19 -1
-8 3 -5 6 6 6 11 1 17 -2 13 -5z m-2742 -39 c0 -16 -8 -21 -44 -23 -48 -4 -67
8 -57 33 4 12 17 15 53 13 40 -3 48 -6 48 -23z m3411 -97 c-7 -142 -13 -168
-34 -168 -12 0 -13 9 -8 48 4 26 9 91 13 145 5 77 9 97 21 97 13 0 14 -17 8
-122z m-3037 97 c14 -14 -23 -18 -176 -16 -102 1 -143 17 -60 23 56 4 230 -1
236 -7z m2827 -102 c-8 -138 -13 -155 -40 -151 -16 2 -21 9 -19 28 1 14 5 71
9 128 7 100 7 102 32 102 l25 0 -7 -107z m-941 19 c-4 -31 -10 -51 -12 -44 -3
7 -2 39 2 70 4 31 10 51 12 44 3 -7 2 -39 -2 -70z m-1967 49 c66 -1 82 -4 82
-16 0 -13 -22 -15 -140 -15 -115 0 -140 3 -140 14 0 14 57 25 100 19 8 -1 52
-2 98 -2z m58 -51 c15 0 24 -6 24 -15 0 -13 -22 -15 -140 -15 -116 0 -140 2
-140 15 0 11 21 15 103 17 56 2 108 2 115 1 8 -2 25 -3 38 -3z m-348 -42 c-2
-19 -10 -24 -47 -26 -28 -2 -47 1 -52 10 -13 21 11 38 58 38 40 0 44 -2 41
-22z m-420 -129 c22 -133 23 -165 3 -143 -20 22 -52 284 -35 284 5 0 20 -63
32 -141z m236 16 c19 -118 17 -145 -8 -145 -17 0 -34 72 -43 183 -6 72 -5 77
14 77 17 0 21 -13 37 -115z m556 94 c0 -5 -60 -9 -140 -9 -81 0 -140 4 -140 9
0 6 21 11 48 13 82 5 232 -3 232 -13z m1865 -36 c-14 -80 -111 -283 -135 -283
-5 0 9 26 29 58 41 62 85 164 96 225 4 20 9 37 12 37 3 0 2 -17 -2 -37z
m-1865 -13 c0 -6 -53 -10 -140 -10 -87 0 -140 4 -140 10 0 6 53 10 140 10 87
0 140 -4 140 -10z m-353 -56 c9 -23 -7 -33 -57 -36 -36 -2 -45 0 -48 15 -7 32
93 53 105 21z m353 6 c0 -6 -53 -10 -140 -10 -87 0 -140 4 -140 10 0 6 53 10
140 10 87 0 140 -4 140 -10z m2590 -83 c-23 -98 -62 -217 -71 -217 -4 0 6 39
21 88 16 48 34 115 40 149 7 35 16 61 20 58 4 -2 0 -37 -10 -78z m-2590 32 c0
-9 -14 -12 -42 -10 -10 1 -18 -4 -18 -13 0 -11 9 -16 30 -16 17 0 30 -4 30
-10 0 -5 -11 -10 -25 -10 -18 0 -23 -4 -19 -15 4 -8 15 -15 25 -15 10 0 19 -4
19 -10 0 -5 -7 -10 -15 -10 -8 0 -15 -2 -15 -5 0 -3 21 -47 46 -98 53 -105
102 -179 175 -268 47 -55 50 -62 36 -77 -19 -18 -71 -24 -56 -6 11 14 -25 49
-40 39 -7 -3 -8 0 -5 10 9 23 -15 47 -40 39 -18 -6 -19 -5 -8 9 11 12 11 19 1
35 -7 11 -19 18 -26 15 -9 -4 -11 0 -7 11 8 21 -15 49 -34 41 -12 -4 -13 -3
-3 9 10 12 10 19 -2 36 -13 19 -16 20 -31 5 -9 -9 -16 -12 -16 -7 0 5 6 15 14
22 23 18 1 59 -28 53 -19 -5 -19 -4 -4 8 19 16 8 61 -14 55 -7 -1 -10 -1 -5 1
12 8 8 41 -9 57 -12 12 -37 16 -105 16 -53 0 -89 4 -89 10 0 6 38 10 95 10 80
0 93 2 89 15 -5 12 -25 15 -95 15 -53 0 -89 4 -89 10 0 6 34 10 81 10 58 0 85
4 95 15 14 13 5 15 -80 15 -142 0 -119 19 27 22 130 3 157 1 157 -13z m2797 5
c7 -19 -11 -122 -34 -194 -13 -42 -20 -50 -37 -48 -16 2 -21 10 -20 33 1 24
32 158 49 213 6 17 35 15 42 -4z m213 -23 c0 -29 -28 -159 -46 -213 -9 -28
-22 -48 -30 -48 -19 0 -19 -4 18 148 21 84 37 132 45 132 7 0 13 -9 13 -19z
m-2750 -56 c0 -5 -5 -3 -10 5 -5 8 -10 20 -10 25 0 6 5 3 10 -5 5 -8 10 -19
10 -25z m-582 -17 c2 -12 -8 -20 -38 -28 -49 -13 -73 -7 -68 17 6 33 100 42
106 11z m600 -23 c-3 -3 -9 2 -12 12 -6 14 -5 15 5 6 7 -7 10 -15 7 -18z
m-785 -52 c28 -104 30 -123 14 -123 -21 0 -33 18 -56 87 -27 80 -27 93 3 93
20 0 26 -8 39 -57z m-225 -58 c22 -80 21 -105 -4 -71 -15 21 -44 114 -44 141
0 41 27 2 48 -70z m772 45 c0 -5 -5 -10 -11 -10 -5 0 -7 5 -4 10 3 6 8 10 11
10 2 0 4 -4 4 -10z m-326 -26 c9 -22 1 -31 -40 -44 -67 -23 -91 22 -24 46 47
17 57 17 64 -2z m394 -9 c-3 -3 -9 2 -12 12 -6 14 -5 15 5 6 7 -7 10 -15 7
-18z m26 -41 c3 -8 2 -12 -4 -9 -6 3 -10 10 -10 16 0 14 7 11 14 -7z m-54 -4
c0 -5 -2 -10 -4 -10 -3 0 -8 5 -11 10 -3 6 -1 10 4 10 6 0 11 -4 11 -10z
m2430 -26 c-49 -127 -154 -297 -263 -425 -62 -72 -64 -77 -49 -95 16 -18 16
-18 -3 -2 -19 16 -22 14 -65 -24 -111 -99 -272 -207 -386 -257 -80 -36 -177
-72 -182 -67 -4 4 63 36 75 36 15 0 158 69 229 111 79 47 274 194 289 219 4 6
-4 24 -16 38 l-24 27 28 -25 29 -25 54 60 c77 84 196 264 244 368 37 82 61
119 40 61z m204 20 c18 -7 12 -24 -10 -24 -8 0 -14 7 -14 15 0 17 2 18 24 9z
m-2761 -19 c-3 -9 -8 -14 -10 -11 -3 3 -2 9 2 15 9 16 15 13 8 -4z m216 -29
c-3 -3 -11 5 -18 17 -13 21 -12 21 5 5 10 -10 16 -20 13 -22z m-59 4 c0 -5 -4
-10 -10 -10 -5 0 -10 5 -10 10 0 6 5 10 10 10 6 0 10 -4 10 -10z m-350 -4 c0
-2 3 -11 6 -20 8 -22 -72 -62 -92 -45 -22 18 -17 27 24 48 35 19 62 26 62 17z
m440 -36 c0 -5 -2 -10 -4 -10 -3 0 -8 5 -11 10 -3 6 -1 10 4 10 6 0 11 -4 11
-10z m31 -47 c13 -16 12 -17 -3 -4 -10 7 -18 15 -18 17 0 8 8 3 21 -13z m-51
-7 c0 -3 -4 -8 -10 -11 -5 -3 -10 -1 -10 4 0 6 5 11 10 11 6 0 10 -2 10 -4z
m-352 -47 c4 -19 -64 -63 -84 -55 -25 10 -15 42 19 59 38 19 61 18 65 -4z
m432 -14 c13 -14 21 -25 18 -25 -2 0 -15 11 -28 25 -13 14 -21 25 -18 25 2 0
15 -11 28 -25z m647 9 c-3 -3 -12 -4 -19 -1 -8 3 -5 6 6 6 11 1 17 -2 13 -5z
m373 -10 c-25 -8 -92 -17 -150 -19 l-105 -4 95 9 c52 4 113 13 135 18 60 15
76 12 25 -4z m-979 -11 c13 -16 12 -17 -3 -4 -10 7 -18 15 -18 17 0 8 8 3 21
-13z m718 1 c8 -7 -54 -2 -79 6 -17 6 -9 7 25 3 28 -3 52 -7 54 -9z m936 -4
c3 -5 1 -10 -4 -10 -6 0 -11 5 -11 10 0 6 2 10 4 10 3 0 8 -4 11 -10z m-1635
-45 c13 -14 21 -25 18 -25 -2 0 -15 11 -28 25 -13 14 -21 25 -18 25 2 0 15
-11 28 -25z m29 -63 c7 -7 12 -15 9 -17 -5 -5 -58 40 -58 50 0 7 21 -7 49 -33z
m1451 34 c0 -2 -8 -10 -17 -17 -16 -13 -17 -12 -4 4 13 16 21 21 21 13z
m-1570 -60 c0 -3 -4 -8 -10 -11 -5 -3 -10 -1 -10 4 0 6 5 11 10 11 6 0 10 -2
10 -4z m1325 -46 c3 -5 1 -10 -4 -10 -6 0 -11 5 -11 10 0 6 2 10 4 10 3 0 8
-4 11 -10z m-51 -26 c3 -8 2 -12 -4 -9 -6 3 -10 10 -10 16 0 14 7 11 14 -7z
m361 -14 c3 -5 1 -10 -4 -10 -6 0 -11 5 -11 10 0 6 2 10 4 10 3 0 8 -4 11 -10z
m-858 -72 c-3 -8 -6 -5 -6 6 -1 11 2 17 5 13 3 -3 4 -12 1 -19z m170 0 c-3 -8
-6 -5 -6 6 -1 11 2 17 5 13 3 -3 4 -12 1 -19z m577 -4 c3 -8 2 -12 -4 -9 -6 3
-10 10 -10 16 0 14 7 11 14 -7z m-1314 2 c0 -3 -4 -8 -10 -11 -5 -3 -10 -1
-10 4 0 6 5 11 10 11 6 0 10 -2 10 -4z m427 -12 c-3 -3 -12 -4 -19 -1 -8 3 -5
6 6 6 11 1 17 -2 13 -5z m628 -4 c3 -5 1 -10 -4 -10 -6 0 -11 5 -11 10 0 6 2
10 4 10 3 0 8 -4 11 -10z m-578 -6 c-3 -3 -12 -4 -19 -1 -8 3 -5 6 6 6 11 1
17 -2 13 -5z m366 -1 c-7 -2 -19 -2 -25 0 -7 3 -2 5 12 5 14 0 19 -2 13 -5z
m187 -3 c0 -5 -4 -10 -10 -10 -5 0 -10 5 -10 10 0 6 5 10 10 10 6 0 10 -4 10
-10z m-610 -40 c0 -5 -2 -10 -4 -10 -3 0 -8 5 -11 10 -3 6 -1 10 4 10 6 0 11
-4 11 -10z m470 0 c0 -5 -4 -10 -10 -10 -5 0 -10 5 -10 10 0 6 5 10 10 10 6 0
10 -4 10 -10z m-410 -10 c0 -5 -4 -10 -10 -10 -5 0 -10 5 -10 10 0 6 5 10 10
10 6 0 10 -4 10 -10z m350 0 c0 -5 -4 -10 -10 -10 -5 0 -10 5 -10 10 0 6 5 10
10 10 6 0 10 -4 10 -10z m-345 -26 c114 -18 286 -13 395 11 82 18 77 18 83 -5
7 -26 -18 -78 -26 -57 -4 10 -15 13 -32 9 -21 -4 -26 -9 -21 -26 5 -19 4 -20
-8 -3 -20 25 -56 22 -57 -5 -1 -17 -2 -19 -6 -5 -3 11 -14 17 -34 17 -20 0
-29 -5 -30 -17 -1 -17 -2 -17 -6 0 -3 10 -14 17 -29 17 -18 0 -24 -6 -25 -22
-1 -16 -3 -18 -6 -7 -2 9 -15 19 -29 22 -19 3 -28 -1 -34 -17 -9 -21 -9 -21
-9 2 -1 27 -37 30 -58 5 -10 -14 -13 -14 -11 -3 4 23 -49 26 -55 3 -4 -14 -5
-13 -6 5 -1 27 -45 31 -60 5 -9 -16 -10 -16 -11 3 0 28 -36 39 -50 16 -9 -16
-9 -16 -10 1 0 9 -4 17 -10 17 -11 0 -14 43 -3 54 4 4 17 5 28 1 11 -3 65 -12
120 -21z m85 16 c0 -5 -4 -10 -10 -10 -5 0 -10 5 -10 10 0 6 5 10 10 10 6 0
10 -4 10 -10z m55 0 c3 -5 1 -10 -4 -10 -6 0 -11 5 -11 10 0 6 2 10 4 10 3 0
8 -4 11 -10z m145 0 c0 -5 -2 -10 -4 -10 -3 0 -8 5 -11 10 -3 6 -1 10 4 10 6
0 11 -4 11 -10z m368 -15 c-3 -3 -9 2 -12 12 -6 14 -5 15 5 6 7 -7 10 -15 7
-18z m-1583 -75 c-5 -17 -10 -19 -21 -9 -19 15 -18 27 4 31 23 6 25 3 17 -22z
m2750 10 c3 -5 -1 -10 -10 -10 -9 0 -13 5 -10 10 3 6 8 10 10 10 2 0 7 -4 10
-10z m-1197 -225 c-3 -3 -23 -8 -44 -10 l-39 -5 40 14 c38 13 55 13 43 1z"/>
<path d="M2923 2403 c31 -2 83 -2 115 0 31 2 5 3 -58 3 -63 0 -89 -1 -57 -3z"/>
<path d="M3213 2403 c42 -2 112 -2 155 0 42 1 7 3 -78 3 -85 0 -120 -2 -77 -3z"/>
<path d="M2938 2353 c34 -2 90 -2 125 0 34 2 6 3 -63 3 -69 0 -97 -1 -62 -3z"/>
<path d="M3233 2353 c42 -2 112 -2 155 0 42 1 7 3 -78 3 -85 0 -120 -2 -77 -3z"/>
<path d="M707 2353 c18 -2 50 -2 70 0 21 2 7 4 -32 4 -38 0 -55 -2 -38 -4z"/>
<path d="M918 2353 c6 -2 18 -2 25 0 6 3 1 5 -13 5 -14 0 -19 -2 -12 -5z"/>
<path d="M2960 1625 c0 -13 14 -15 87 -13 58 2 88 7 91 16 3 9 -19 12 -87 12
-75 0 -91 -3 -91 -15z"/>
<path d="M2947 1583 c-18 -18 0 -23 83 -23 73 0 90 3 90 15 0 12 -16 15 -83
15 -46 0 -87 -3 -90 -7z"/>
<path d="M1250 1386 c0 -2 8 -10 18 -17 15 -13 16 -12 3 4 -13 16 -21 21 -21
13z"/>
<path d="M1090 1820 c0 -6 30 -10 70 -10 40 0 70 4 70 10 0 6 -30 10 -70 10
-40 0 -70 -4 -70 -10z"/>
<path d="M1110 1725 c0 -12 14 -15 70 -15 56 0 70 3 70 15 0 12 -14 15 -70 15
-56 0 -70 -3 -70 -15z"/>
</g>
</svg>
